<svg xmlns="http://www.w3.org/2000/svg" xmlns:xlink="http://www.w3.org/1999/xlink" id="Layer_2" x="0px" y="0px" viewBox="0 0 395.2 350.7" style="enable-background:new 0 0 395.2 350.7;" xml:space="preserve">
<style type="text/css">
	.st0{fill:#F7F7F7;}
	.st1{fill:#F2F2F2;}
	.st2{fill:#A8A3B8;}
	.st3{fill:#FFFFFF;}
	.st4{fill:#675E83;}
	.st5{fill:#928CA7;}
	.st6{fill:#FFE3CA;}
	.st7{fill:#0D4972;}
	.st8{fill:#FE1195;}
	.st9{fill:#26194F;}
	.st10{fill:#BDBACA;}
	.st11{fill:#FE1195;stroke:#000000;stroke-miterlimit:10;}
	.st12{fill:#26194F;stroke:#000000;stroke-miterlimit:10;}
	.st13{fill:#FCD2B1;}
	.st14{fill:#3B2F60;}
	.st15{clip-path:url(#SVGID_2_);}
	.st16{fill:none;stroke:#FFFFFF;stroke-miterlimit:10;}
	.st17{fill-rule:evenodd;clip-rule:evenodd;fill:#928CA7;}
	.st18{opacity:0.78;fill:#BDBACA;}
	.st19{opacity:0.41;fill:#BDBACA;}
	.st20{fill:#0B4870;}
</style>
<path class="st0" d="M361.6,277c0,13.2-10.7,23.9-23.9,23.9h-280c-13.2,0-23.9-10.7-23.9-23.9V112.4c0-13.2,10.7-23.9,23.9-23.9h280  c13.2,0,23.9,10.7,23.9,23.9L361.6,277L361.6,277z"></path>
<path class="st5" d="M375.6,336.5H20.3c-7.3,0-13.2-5.9-13.2-13.2v-6.6c0-3.6,2.9-6.6,6.6-6.6h368.5c3.6,0,6.6,2.9,6.6,6.6v6.6  C388.8,330.7,382.9,336.5,375.6,336.5z"></path>
<path class="st5" d="M220.2,323.4h-44.5c-2.5,0-4.8-1.4-5.9-3.6l-4.8-9.5h65.8l-4.8,9.5C225,322,222.7,323.4,220.2,323.4z"></path>
<path class="st10" d="M375.6,311.2V94.1c0-10.9-8.8-19.7-19.7-19.7H40c-10.9,0-19.7,8.8-19.7,19.7v217.2 M355.9,284.9  c0,3.6-2.9,6.6-6.6,6.6H46.6c-3.6,0-6.6-2.9-6.6-6.6V100.6c0-3.6,2.9-6.6,6.6-6.6h302.7c3.6,0,6.6,2.9,6.6,6.6V284.9L355.9,284.9z"></path>
<path class="st4" d="M95.9,93.5c1.2,4.2,2.9,8.3,5.1,12.1l-6.2,7.8c-2,2.5-1.8,6.2,0.5,8.5l10.6,10.6c2.3,2.3,5.9,2.5,8.5,0.5  l7.7-6.1c4,2.3,8.2,4.1,12.6,5.3l1.2,10c0.4,3.2,3.1,5.6,6.3,5.6h15c3.2,0,5.9-2.4,6.3-5.6l1.1-9.6c4.7-1.2,9.3-3.1,13.5-5.5  l7.5,5.9c2.5,2,6.2,1.8,8.5-0.5l10.6-10.6c2.3-2.3,2.5-5.9,0.5-8.5l-5.8-7.4c2.4-4.2,4.3-8.6,5.6-13.3l9-1c3.2-0.4,5.6-3.1,5.6-6.3  v-15c0-3.2-2.4-5.9-5.6-6.3l-8.8-1c-1.2-4.6-3-9-5.3-13.2l5.4-6.9c2-2.5,1.8-6.2-0.5-8.5l-10.6-10.6c-2.3-2.3-5.9-2.5-8.5-0.5  l-6.7,5.3c-4.3-2.5-9-4.5-13.8-5.8l-1-8.6c-0.4-3.2-3.1-5.6-6.3-5.6h-15c-3.2,0-5.9,2.4-6.3,5.6l-1,8.6c-5,1.3-9.8,3.4-14.2,6  l-6.9-5.5c-2.5-2-6.2-1.8-8.5,0.5L95.3,34.6c-2.3,2.3-2.5,5.9-0.5,8.5l5.8,7.3c-2.3,4.2-4.1,8.6-5.2,13.3l-9.3,1.1  c-3.2,0.4-5.6,3.1-5.6,6.3v15c0,3.2,2.4,5.9,5.6,6.3L95.9,93.5z M150.4,52.8c13.7,0,24.9,11.2,24.9,24.9c0,13.7-11.2,24.9-24.9,24.9  s-24.9-11.2-24.9-24.9C125.5,64,136.7,52.8,150.4,52.8z"></path>
<path class="st4" d="M299.2,97.3l-7.9-6.7c-2.4-2.1-6-2-8.4,0.2l-4.4,4.1c-3.7-1.8-7.6-3-11.7-3.8l-1.2-6c-0.6-3.1-3.5-5.3-6.7-5  l-10.4,0.9c-3.2,0.3-5.7,2.9-5.8,6.1l-0.2,6.2c-4,1.4-7.7,3.4-11.2,5.9l-5.2-3.5c-2.7-1.8-6.2-1.3-8.3,1.2l-6.7,8  c-2.1,2.4-2,6,0.2,8.4l4.6,4.9c-1.6,3.6-2.7,7.3-3.4,11.2l-6.6,1.3c-3.1,0.6-5.3,3.5-5,6.7l0.9,10.4c0.3,3.2,2.9,5.7,6.1,5.8  l7.1,0.2c1.3,3.4,3,6.6,5,9.6l-4,6c-1.8,2.7-1.3,6.2,1.2,8.3l7.9,6.7c2.4,2.1,6,2,8.4-0.2l5.2-4.9c3.4,1.6,7,2.8,10.7,3.5l1.4,7.1  c0.6,3.1,3.5,5.3,6.7,5l10.4-0.9c3.2-0.3,5.7-2.9,5.8-6.1l0.2-7c3.8-1.3,7.4-3.1,10.7-5.4l5.7,3.8c2.7,1.8,6.2,1.3,8.3-1.2l6.7-7.9  c2.1-2.4,2-6-0.2-8.4l-4.6-4.9c1.7-3.6,2.9-7.4,3.6-11.2l6.3-1.3c3.1-0.6,5.3-3.5,5-6.7l-0.9-10.4c-0.3-3.2-2.9-5.7-6.1-5.8  l-6.3-0.2c-1.3-3.7-3.1-7.2-5.3-10.4l3.5-5.2C302.1,102.9,301.6,99.3,299.2,97.3z M260.1,157.1c-11.2,1-21.1-7.4-22-18.6  c-1-11.2,7.4-21.1,18.6-22c11.2-1,21.1,7.4,22,18.6C279.6,146.3,271.3,156.2,260.1,157.1z"></path>
<path class="st8" d="M132.1,185c-3.2,0.3-5.6,3-5.6,6.2l-0.1,6.4c-0.1,3.2,2.3,5.9,5.5,6.3l4.7,0.6c0.8,2.8,1.9,5.6,3.3,8.1l-3,3.7  c-2,2.5-1.9,6.1,0.4,8.4l4.5,4.6c2.2,2.3,5.8,2.5,8.4,0.6l3.8-2.9c2.6,1.6,5.4,2.8,8.4,3.7l0.5,4.8c0.3,3.2,3,5.6,6.2,5.6l6.4,0.1  c3.2,0,5.9-2.3,6.3-5.5l0.6-4.6c3.2-0.8,6.2-2,9.1-3.5l3.5,2.8c2.5,2,6.1,1.9,8.4-0.4l4.6-4.5c2.3-2.2,2.5-5.8,0.6-8.4l-2.7-3.5  c1.7-2.8,2.9-5.7,3.8-8.8l4.2-0.4c3.2-0.3,5.6-3,5.6-6.2l0.1-6.4c0.1-3.2-2.3-5.9-5.5-6.3l-4.1-0.5c-0.8-3.1-1.9-6-3.5-8.8l2.5-3.1  c2-2.5,1.9-6.1-0.4-8.4l-4.5-4.6c-2.2-2.3-5.8-2.5-8.4-0.6l-3.1,2.3c-2.9-1.7-5.9-3.1-9.2-4l-0.4-4c-0.3-3.2-3-5.6-6.2-5.6l-6.4-0.1  c-3.2-0.1-5.9,2.3-6.3,5.5l-0.5,3.9c-3.3,0.9-6.5,2.2-9.5,3.9L151,159c-2.5-2-6.1-1.9-8.4,0.4l-4.6,4.5c-2.3,2.2-2.5,5.8-0.6,8.4  l2.7,3.5c-1.6,2.8-2.8,5.7-3.6,8.8L132.1,185z M173.3,177.8c9.1,0.1,16.5,7.6,16.4,16.8c-0.1,9.1-7.6,16.5-16.8,16.4  c-9.1-0.1-16.5-7.6-16.4-16.8C156.6,185,164.1,177.7,173.3,177.8z"></path>
</svg>