<svg xmlns="http://www.w3.org/2000/svg" xmlns:xlink="http://www.w3.org/1999/xlink" id="Layer_2" x="0px" y="0px" viewBox="0 0 174.5 343.7" style="enable-background:new 0 0 174.5 343.7;" xml:space="preserve">
<style type="text/css">
	.st0{fill:#F7F7F7;}
	.st1{fill:#F2F2F2;}
	.st2{fill:#A8A3B8;}
	.st3{fill:#FFFFFF;}
	.st4{fill:#675E83;}
	.st5{fill:#928CA7;}
	.st6{fill:#FFE3CA;}
	.st7{fill:#0D4972;}
	.st8{fill:#FE1195;}
	.st9{fill:#26194F;}
	.st10{fill:#BDBACA;}
	.st11{fill:#FE1195;stroke:#000000;stroke-miterlimit:10;}
	.st12{fill:#26194F;stroke:#000000;stroke-miterlimit:10;}
	.st13{fill:#FCD2B1;}
	.st14{fill:#3B2F60;}
	.st15{clip-path:url(#SVGID_2_);}
	.st16{fill:none;stroke:#FFFFFF;stroke-miterlimit:10;}
	.st17{fill-rule:evenodd;clip-rule:evenodd;fill:#928CA7;}
	.st18{opacity:0.78;fill:#BDBACA;}
	.st19{opacity:0.41;fill:#BDBACA;}
	.st20{fill:#0B4870;}
</style>
<path class="st18" d="M149.5,22.3H26.7c-8.5,0-15.3,6.9-15.3,15.4v266.1c0,8.5,6.9,15.4,15.3,15.4h122.8c8.5,0,15.3-6.9,15.3-15.4  V37.7C164.9,29.2,158,22.3,149.5,22.3z M72.8,37.7h30.7c1.4,0,2.7,0.6,3.6,1.5c0.9,0.9,1.5,2.2,1.5,3.6c0,2.8-2.3,5.1-5.1,5.1H72.8  c-1.4,0-2.7-0.6-3.6-1.5c-0.9-0.9-1.5-2.2-1.5-3.6C67.6,40,69.9,37.7,72.8,37.7z M52.3,37.7c2.8,0,5.1,2.3,5.1,5.1  c0,2.8-2.3,5.1-5.1,5.1s-5.1-2.3-5.1-5.1C47.2,40,49.5,37.7,52.3,37.7z M88.1,308.9c-5.7,0-10.2-4.6-10.2-10.2  c0-5.7,4.6-10.2,10.2-10.2c5.7,0,10.2,4.6,10.2,10.2C98.3,304.3,93.7,308.9,88.1,308.9z M154.6,278.2h-133V63.3h133V278.2z"></path>
<path class="st19" d="M21.6,63.3v153.5h40.9c0-2.8,2.3-5.1,5.1-5.1s5.1,2.3,5.1,5.1H83c0-1.4,0.6-2.7,1.5-3.6  c0.9-0.9,2.2-1.5,3.6-1.5c2.8,0,5.1,2.3,5.1,5.1h10.2c0-1.4,0.6-2.7,1.5-3.6c0.9-0.9,2.2-1.5,3.6-1.5c2.8,0,5.1,2.3,5.1,5.1h40.9  V63.3H21.6z M62.5,191.2c0,2.8-2.3,5.1-5.1,5.1H36.9c-2.8,0-5.1-2.3-5.1-5.1v-20.5c0-2.8,2.3-5.1,5.1-5.1h20.5  c2.8,0,5.1,2.3,5.1,5.1V191.2z M62.5,150.3c0,2.8-2.3,5.1-5.1,5.1H36.9c-2.8,0-5.1-2.3-5.1-5.1v-20.5c0-2.8,2.3-5.1,5.1-5.1h20.5  c2.8,0,5.1,2.3,5.1,5.1V150.3z M62.5,109.3c0,2.8-2.3,5.1-5.1,5.1H36.9c-2.8,0-5.1-2.3-5.1-5.1V88.9c0-2.8,2.3-5.1,5.1-5.1h20.5  c2.8,0,5.1,2.3,5.1,5.1V109.3z M72.8,88.9c0-2.8,2.3-5.1,5.1-5.1h20.5c2.8,0,5.1,2.3,5.1,5.1v20.5c0,2.8-2.3,5.1-5.1,5.1H77.9  c-2.8,0-5.1-2.3-5.1-5.1V88.9z M72.8,129.8c0-2.8,2.3-5.1,5.1-5.1h20.5c2.8,0,5.1,2.3,5.1,5.1v20.5c0,2.8-2.3,5.1-5.1,5.1H77.9  c-2.8,0-5.1-2.3-5.1-5.1V129.8z M98.3,196.3H77.9c-2.8,0-5.1-2.3-5.1-5.1v-20.5c0-2.8,2.3-5.1,5.1-5.1h20.5c2.8,0,5.1,2.3,5.1,5.1  v20.5C103.4,194,101.2,196.3,98.3,196.3z M144.4,191.2c0,2.8-2.3,5.1-5.1,5.1h-20.5c-2.8,0-5.1-2.3-5.1-5.1v-20.5  c0-2.8,2.3-5.1,5.1-5.1h20.5c2.8,0,5.1,2.3,5.1,5.1V191.2z M144.4,150.3c0,2.8-2.3,5.1-5.1,5.1h-20.5c-2.8,0-5.1-2.3-5.1-5.1v-20.5  c0-2.8,2.3-5.1,5.1-5.1h20.5c2.8,0,5.1,2.3,5.1,5.1V150.3z M144.4,109.3c0,2.8-2.3,5.1-5.1,5.1h-20.5c-2.8,0-5.1-2.3-5.1-5.1V88.9  c0-2.8,2.3-5.1,5.1-5.1h20.5c2.8,0,5.1,2.3,5.1,5.1V109.3z"></path>
<path class="st0" d="M62.5,129.8v20.5c0,2.8-2.3,5.1-5.1,5.1H36.9c-2.8,0-5.1-2.3-5.1-5.1v-20.5c0-2.8,2.3-5.1,5.1-5.1h20.5  C60.2,124.7,62.5,127,62.5,129.8z"></path>
<path class="st1" d="M113.7,216.8c0,2.8-2.3,5.1-5.1,5.1c-2.8,0-5.1-2.3-5.1-5.1H93.2c0,1.4-0.6,2.7-1.5,3.6  c-0.9,0.9-2.2,1.5-3.6,1.5c-2.8,0-5.1-2.3-5.1-5.1H72.7c0,1.4-0.6,2.7-1.5,3.6c-0.9,0.9-2.2,1.5-3.6,1.5c-2.8,0-5.1-2.3-5.1-5.1  H21.6v61.4h133v-61.4H113.7z M62.5,257.7c0,2.8-2.3,5.1-5.1,5.1H36.9c-2.8,0-5.1-2.3-5.1-5.1v-20.5c0-2.8,2.3-5.1,5.1-5.1h20.5  c2.8,0,5.1,2.3,5.1,5.1V257.7z M103.4,257.7c0,2.8-2.3,5.1-5.1,5.1H77.9c-2.8,0-5.1-2.3-5.1-5.1v-20.5c0-2.8,2.3-5.1,5.1-5.1h20.5  c2.8,0,5.1,2.3,5.1,5.1V257.7z M144.4,257.7c0,2.8-2.3,5.1-5.1,5.1h-20.5c-2.8,0-5.1-2.3-5.1-5.1v-20.5c0-2.8,2.3-5.1,5.1-5.1h20.5  c2.8,0,5.1,2.3,5.1,5.1V257.7z"></path>
<g>
	<path class="st9" d="M72.7,47.9h30.7c2.8,0,5.1-2.3,5.1-5.1l0,0c0-2.8-2.3-5.1-5.1-5.1H72.7c-2.8,0-5.1,2.3-5.1,5.1l0,0   C67.6,45.6,69.9,47.9,72.7,47.9z"></path>
	<circle class="st9" cx="52.3" cy="42.8" r="5.1"></circle>
	<circle class="st9" cx="88.1" cy="298.7" r="10.2"></circle>
</g>
<path class="st9" d="M113.7,257.7c0,2.8,2.3,5.1,5.1,5.1h20.5c2.8,0,5.1-2.3,5.1-5.1v-20.5c0-2.8-2.3-5.1-5.1-5.1h-20.5  c-2.8,0-5.1,2.3-5.1,5.1V257.7z"></path>
<path class="st4" d="M57.4,232.2H36.9c-2.8,0-5.1,2.3-5.1,5.1v20.5c0,2.8,2.3,5.1,5.1,5.1h20.5c2.8,0,5.1-2.3,5.1-5.1v-20.5  C62.5,234.5,60.2,232.2,57.4,232.2z"></path>
<path class="st9" d="M77.9,196.3h20.5c2.8,0,5.1-2.3,5.1-5.1v-20.5c0-2.8-2.3-5.1-5.1-5.1H77.9c-2.8,0-5.1,2.3-5.1,5.1v20.5  C72.7,194,75,196.3,77.9,196.3z"></path>
<path class="st8" d="M144.4,170.8v20.5c0,2.8-2.3,5.1-5.1,5.1h-20.5c-2.8,0-5.1-2.3-5.1-5.1v-20.5c0-2.8,2.3-5.1,5.1-5.1h20.5  C142.1,165.6,144.4,167.9,144.4,170.8z"></path>
<path class="st4" d="M62.5,170.8v20.5c0,2.8-2.3,5.1-5.1,5.1H36.9c-2.8,0-5.1-2.3-5.1-5.1v-20.5c0-2.8,2.3-5.1,5.1-5.1h20.5  C60.2,165.6,62.5,167.9,62.5,170.8z"></path>
<path class="st10" d="M103.4,129.8v20.5c0,2.8-2.3,5.1-5.1,5.1H77.9c-2.8,0-5.1-2.3-5.1-5.1v-20.5c0-2.8,2.3-5.1,5.1-5.1h20.5  C101.2,124.7,103.4,127,103.4,129.8z"></path>
<path class="st4" d="M118.8,155.4h20.5c2.8,0,5.1-2.3,5.1-5.1v-20.5c0-2.8-2.3-5.1-5.1-5.1h-20.5c-2.8,0-5.1,2.3-5.1,5.1v20.5  C113.7,153.1,116,155.4,118.8,155.4z"></path>
<path class="st4" d="M77.9,114.5h20.5c2.8,0,5.1-2.3,5.1-5.1V88.9c0-2.8-2.3-5.1-5.1-5.1H77.9c-2.8,0-5.1,2.3-5.1,5.1v20.5  C72.7,112.2,75,114.5,77.9,114.5z"></path>
<g>
	<path class="st2" d="M36.9,114.5h20.5c2.8,0,5.1-2.3,5.1-5.1V88.9c0-2.8-2.3-5.1-5.1-5.1H36.9c-2.8,0-5.1,2.3-5.1,5.1v20.5   C31.8,112.2,34.1,114.5,36.9,114.5z"></path>
	<path class="st2" d="M103.4,237.3v20.5c0,2.8-2.3,5.1-5.1,5.1H77.9c-2.8,0-5.1-2.3-5.1-5.1v-20.5c0-2.8,2.3-5.1,5.1-5.1h20.5   C101.2,232.2,103.4,234.5,103.4,237.3z"></path>
</g>
<path class="st0" d="M144.4,88.9v20.5c0,2.8-2.3,5.1-5.1,5.1h-20.5c-2.8,0-5.1-2.3-5.1-5.1V88.9c0-2.8,2.3-5.1,5.1-5.1h20.5  C142.1,83.8,144.4,86.1,144.4,88.9z"></path>
<circle class="st20" cx="67.6" cy="216.8" r="5.1"></circle>
<g>
	<circle class="st20" cx="88.1" cy="216.8" r="5.1"></circle>
	<circle class="st20" cx="108.6" cy="216.8" r="5.1"></circle>
</g>
</svg>