<svg xmlns="http://www.w3.org/2000/svg" xmlns:xlink="http://www.w3.org/1999/xlink" id="Layer_2" x="0px" y="0px" viewBox="0 0 372.3 343.7" style="enable-background:new 0 0 372.3 343.7;" xml:space="preserve">
<style type="text/css">
	.st0{fill:#F7F7F7;}
	.st1{fill:#F2F2F2;}
	.st2{fill:#A8A3B8;}
	.st3{fill:#FFFFFF;}
	.st4{fill:#675E83;}
	.st5{fill:#928CA7;}
	.st6{fill:#FFE3CA;}
	.st7{fill:#0D4972;}
	.st8{fill:#FE1195;}
	.st9{fill:#26194F;}
	.st10{fill:#BDBACA;}
	.st11{fill:#FE1195;stroke:#000000;stroke-miterlimit:10;}
	.st12{fill:#26194F;stroke:#000000;stroke-miterlimit:10;}
	.st13{fill:#FCD2B1;}
	.st14{fill:#3B2F60;}
	.st15{clip-path:url(#SVGID_2_);}
	.st16{fill:none;stroke:#FFFFFF;stroke-miterlimit:10;}
	.st17{fill-rule:evenodd;clip-rule:evenodd;fill:#928CA7;}
	.st18{opacity:0.78;fill:#BDBACA;}
	.st19{fill:#D3D3D3;}
	.st20{fill:#0B4870;}
</style>
<path class="st9" d="M182.8,209.9c-36,0-39.5,45-18.7,59.5c10.6,1.3,4.2,2.9,5.3,3.5c4,2.4-14.2,25,13.4,23.4  c15.2-0.9,8.3-5.1,12.3-7.5c5.9-0.1,0.1-14.1,0.1-15.3C218.9,262.8,218.8,209.9,182.8,209.9z"></path>
<path class="st13" d="M217.2,292.2l-20.3-8.4c-1.7-0.7-2.8-2.4-2.8-4.2v-5.5h-22.7v5.5c0,1.8-1.1,3.5-2.8,4.2l-20.3,8.4  c-2.5,1.1-4.2,3.5-4.2,6.3v9.1c0,2.5,2,4.5,4.5,4.5h68.2c2.5,0,4.5-2,4.5-4.5v-9.1C221.4,295.7,219.8,293.3,217.2,292.2z"></path>
<path class="st2" d="M217.2,292.2l-19.6-8.2l-14.8,6.4L168,284l-19.6,8.2c-2.5,1.1-4.2,3.5-4.2,6.3v9.1c0,2.5,2,4.5,4.5,4.5h68.2  c2.5,0,4.5-2,4.5-4.5v-9.1C221.4,295.7,219.8,293.3,217.2,292.2z"></path>
<g>
	<path class="st8" d="M182.8,290.4l-13-9.8c-0.8-0.6-2-0.4-2.6,0.4l-2.6,3.9l8,11.2c0.6,0.8,1.8,1,2.6,0.4L182.8,290.4z"></path>
	<path class="st8" d="M182.8,290.4l13-9.8c0.8-0.6,2-0.4,2.6,0.4l2.6,3.9l-8,11.2c-0.6,0.8-1.8,1-2.6,0.4L182.8,290.4z"></path>
</g>
<path class="st6" d="M160.5,244.9c0,1.1,0,2.3,0.1,3.4l1.6,15.9c0.3,3,2,5.7,4.6,7.1l12.9,7.2c2.1,1.1,4.6,1.1,6.6,0l12.9-7.2  c2.6-1.5,4.4-4.1,4.6-7.1l1.4-13.4c0-18.2-22.3-9.1-33.7-20.5C169.5,234.9,161.4,239.1,160.5,244.9z"></path>
<polygon class="st13" points="101.9,282.4 101.9,269.9 69.8,269.9 69.8,282.4 85.8,296.7 "></polygon>
<path class="st10" d="M126.7,288.2l-22.1-5.2c-0.3-0.1-0.6-0.2-0.9-0.4l-17.9,10.4l-17.2-10.9c-0.4,0.4-1,0.7-1.6,0.9l-22.1,5.2  c-3.2,0.8-5.5,3.6-5.5,6.9v14c0,2,1.6,3.6,3.6,3.6h85.6c2,0,3.6-1.6,3.6-3.6v-14C132.2,291.9,129.9,289,126.7,288.2z"></path>
<polygon class="st4" points="90.3,312.7 81.4,312.7 82.5,296.7 89.2,296.7 "></polygon>
<path class="st9" d="M90.3,293.1h-8.9v1c0,2.4,1.9,4.3,4.3,4.3h0.3c2.4,0,4.3-1.9,4.3-4.3V293.1L90.3,293.1z"></path>
<g>
	<path class="st4" d="M69.5,278.4l16.3,14.7c0,0-4.6,2.3-10.2,6.9c-1.2,1-2.9,0.6-3.5-0.8l-7.7-16.9l2.4-3.6   C67.4,277.9,68.7,277.7,69.5,278.4z"></path>
	<path class="st4" d="M102.1,278.4l-16.3,14.7c0,0,4.6,2.3,10.2,6.9c1.2,1,2.9,0.6,3.5-0.8l7.7-16.9l-2.4-3.6   C104.2,277.9,102.9,277.7,102.1,278.4z"></path>
</g>
<path class="st6" d="M112.5,251.3l-2,8.1c-0.2,1-1.1,1.6-2.1,1.6c-0.3,0-0.6-0.1-0.8-0.2l-0.1,2.3c-0.1,3.2-1.7,6.2-4.3,8.1  l-7.4,5.5c-1.9,1.4-4.1,2.1-6.4,2.1h-7.1c-2.3,0-4.6-0.7-6.4-2.1l-7.4-5.5c-2.6-1.9-4.1-4.9-4.3-8.1l-0.1-2.3  c-0.2,0.1-0.5,0.2-0.8,0.2c-1,0-1.8-0.7-2.1-1.6l-2-8.1c-0.6-2.3,1.2-4.6,3.6-4.6h0c0.2,0,0.5,0,0.7,0.1l-0.8-17.9H109l-0.8,17.9  c0.2,0,0.4-0.1,0.7-0.1h0C111.3,246.7,113,249,112.5,251.3z"></path>
<path class="st9" d="M96.6,217.1l1.7,11.8c7.6,1.5,8.7,13.5,8.9,16.9c0,0.6,0.2,1.2,0.6,1.7l2.9,4.5c0,0,2.7-3.5,3.6-12.5  C114.2,239.6,115.8,210,96.6,217.1z"></path>
<path class="st9" d="M67,215.7L67,215.7c-11.9,8.8-9.7,23.9-9.7,23.9c0.8,7.1,3.6,12.5,3.6,12.5l3.6-3.6c0,0-1.4-10.3,5.3-14.3  c6.2-3.7,11.7-1.8,17.3-1.8c14.9,0,19.1-5.6,18.4-12.5c-0.4-3.5-5.8-10.9-19.6-10.7C80.2,209.4,72.4,212.9,67,215.7z"></path>
<polygon class="st13" points="293.1,282.4 293.1,269.9 261,269.9 261,282.4 277.1,296.7 "></polygon>
<path class="st4" d="M317.9,288.2l-22.1-5.2c-0.3-0.1-0.6-0.2-0.9-0.4l-17.9,10.4l-17.2-10.9c-0.4,0.4-1,0.7-1.6,0.9l-22.1,5.2  c-3.2,0.8-5.5,3.6-5.5,6.9v14c0,2,1.6,3.6,3.6,3.6h85.6c2,0,3.6-1.6,3.6-3.6v-14C323.4,291.9,321.2,289,317.9,288.2z"></path>
<polygon class="st5" points="281.5,312.7 272.6,312.7 273.7,296.7 280.4,296.7 "></polygon>
<path class="st9" d="M281.5,293.1h-8.9v1c0,2.4,1.9,4.3,4.3,4.3h0.3c2.4,0,4.3-1.9,4.3-4.3L281.5,293.1L281.5,293.1z"></path>
<g>
	<path class="st5" d="M260.8,278.4l16.3,14.7c0,0-4.6,2.3-10.2,6.9c-1.2,1-2.9,0.6-3.5-0.8l-7.7-16.9l2.4-3.6   C258.7,277.9,260,277.7,260.8,278.4z"></path>
	<path class="st5" d="M293.4,278.4l-16.3,14.7c0,0,4.6,2.3,10.2,6.9c1.2,1,2.9,0.6,3.5-0.8l7.7-16.9l-2.4-3.6   C295.4,277.9,294.2,277.7,293.4,278.4z"></path>
</g>
<path class="st6" d="M303.7,251.3l-2,8.1c-0.2,1-1.1,1.6-2.1,1.6c-0.3,0-0.6-0.1-0.8-0.2l-0.1,2.3c-0.1,3.2-1.7,6.2-4.3,8.1  l-7.4,5.5c-1.9,1.4-4.1,2.1-6.4,2.1h-7.1c-2.3,0-4.6-0.7-6.4-2.1l-7.4-5.5c-2.6-1.9-4.1-4.9-4.3-8.1l-0.1-2.3  c-0.2,0.1-0.5,0.2-0.8,0.2c-1,0-1.8-0.7-2.1-1.6l-2-8.1c-0.6-2.3,1.2-4.6,3.6-4.6h0c0.2,0,0.5,0,0.7,0.1l-0.8-17.9h46.4l-0.8,17.9  c0.2,0,0.4-0.1,0.7-0.1h0C302.5,246.7,304.3,249,303.7,251.3z"></path>
<path class="st9" d="M287.9,217.1l1.7,11.8c7.6,1.5,8.7,13.5,8.9,16.9c0,0.6,0.2,1.2,0.6,1.7l2.9,4.5c0,0,2.7-3.5,3.6-12.5  C305.5,239.6,307.1,210,287.9,217.1z"></path>
<path class="st9" d="M258.2,215.7L258.2,215.7c-11.9,8.8-9.7,23.9-9.7,23.9c0.8,7.1,3.6,12.5,3.6,12.5l3.6-3.6  c0,0-1.4-10.3,5.4-14.3c6.2-3.7,11.7-1.8,17.3-1.8c14.9,0,19.1-5.6,18.4-12.5c-0.4-3.5-5.8-10.9-19.6-10.7  C271.5,209.4,263.7,212.9,258.2,215.7z"></path>
<path class="st18" d="M342.2,49.1v97.4c0,12.3-10,22.3-22.3,22.3H283l-7.6,12.5l-8.1,14.3l-8.1-14.3l-7.6-12.5H200l-7.6,12.5  l-8.1,14.3l-8.1-14.3l-7.6-12.5h-58.9l-7.6,12.5l-8.1,14.3l-8.1-14.3l-7.6-12.5h-35c-12.3,0-22.3-10-22.3-22.3V49.1  c0-12.3,10-22.3,22.3-22.3h276.8C332.2,26.8,342.2,36.7,342.2,49.1z"></path>
<g>
	<path class="st5" d="M112,106.7c1.3,2.7,3,5.2,4.9,7.5l-3.2,5.9c-1,1.9-0.5,4.3,1.3,5.6l8.4,5.8c1.8,1.3,4.3,1,5.7-0.7l4.4-5   c2.9,1.1,6,1.7,9.1,2l2,6.5c0.6,2.1,2.7,3.4,4.9,3l10-1.8c2.2-0.4,3.7-2.3,3.5-4.5l-0.4-6.5c3-1.4,5.8-3.2,8.4-5.3l5.7,3.1   c1.9,1,4.3,0.5,5.6-1.3l5.8-8.4c1.3-1.8,1-4.3-0.7-5.7l-4.8-4.2c1.1-3.1,1.8-6.3,2.1-9.6l5.9-1.8c2.1-0.6,3.4-2.8,3-4.9l-1.8-10   c-0.4-2.2-2.3-3.7-4.5-3.5l-6,0.4c-1.4-2.9-3.1-5.7-5.2-8.1l2.8-5.3c1-1.9,0.5-4.3-1.3-5.6l-8.4-5.8c-1.8-1.3-4.3-1-5.7,0.7   l-3.8,4.3c-3.2-1.2-6.5-1.9-9.9-2.2l-1.7-5.7c-0.6-2.1-2.7-3.4-4.9-3l-10.1,1.8c-2.2,0.4-3.7,2.3-3.5,4.5l0.4,5.9   c-3.2,1.5-6.1,3.4-8.8,5.7l-5.3-2.8c-1.9-1-4.3-0.5-5.6,1.3l-5.8,8.4c-1.3,1.8-1,4.3,0.7,5.7l4.8,4.2c-1,3.1-1.7,6.3-1.9,9.5   l-6.1,1.8c-2.1,0.6-3.4,2.7-3,4.9l1.8,10.1c0.4,2.2,2.3,3.7,4.5,3.5L112,106.7z M143.5,73c9.2-1.6,18,4.5,19.6,13.6   c1.6,9.2-4.5,18-13.6,19.6c-9.2,1.7-18-4.5-19.6-13.6C128.2,83.4,134.3,74.6,143.5,73z"></path>
	<path class="st5" d="M248.2,84.8l-6.1-3.5c-1.9-1.1-4.3-0.6-5.6,1.2l-2.4,3.3c-2.7-0.7-5.5-1.1-8.3-1.1l-1.6-3.9   c-0.8-2-3-3.1-5.1-2.6l-6.8,1.8c-2.1,0.6-3.4,2.6-3.1,4.8l0.6,4.1c-2.5,1.4-4.8,3.2-6.8,5.3l-3.9-1.7c-2-0.9-4.3-0.1-5.4,1.8   l-3.5,6.1c-1.1,1.9-0.6,4.3,1.2,5.6l3.7,2.7c-0.6,2.6-0.9,5.2-0.9,7.9l-4.2,1.7c-2,0.8-3.1,3-2.6,5.1l1.8,6.8   c0.6,2.1,2.6,3.4,4.8,3.1l4.8-0.7c1.3,2.1,2.8,4,4.5,5.8l-1.9,4.5c-0.9,2-0.1,4.3,1.8,5.4l6.1,3.5c1.9,1.1,4.3,0.6,5.6-1.2l2.9-3.9   c2.5,0.7,5,1,7.5,1l1.8,4.6c0.8,2,3,3.1,5.1,2.6l6.8-1.8c2.1-0.6,3.4-2.6,3.1-4.8l-0.7-4.7c2.4-1.3,4.5-3,6.5-4.9l4.3,1.8   c2,0.9,4.3,0.1,5.4-1.8l3.5-6.1c1.1-1.9,0.6-4.3-1.2-5.6l-3.7-2.7c0.7-2.6,1.1-5.3,1.1-7.9l4.1-1.6c2-0.8,3.1-3,2.6-5.1l-1.8-6.8   c-0.6-2.1-2.6-3.4-4.8-3.1l-4.2,0.6c-1.3-2.3-2.9-4.4-4.8-6.3l1.7-3.9C250.8,88.2,250.1,85.8,248.2,84.8z M229.3,129.5   c-7.4,2-15-2.4-16.9-9.8c-2-7.4,2.4-15,9.8-16.9c7.4-2,15,2.4,16.9,9.8C241.1,119.9,236.7,127.5,229.3,129.5z"></path>
</g>
</svg>